PathFileType	4	(X/Y/Z)	7_1_40_p0_0-202_filt_butterworth.trc
DataRate	CameraRate	NumFrames	NumMarkers	Units	OrigDataRate	OrigDataStartFrame	OrigNumFrames
59.0	59.0	6	27	m	59.0	176	202
Frame#	Time	RHip			RKnee			RAnkle			RBigToe			RSmallToe			RHeel			LHip			LKnee			LAnkle			LBigToe			LSmallToe			LHeel			Neck			Head			Nose			RShoulder			RElbow			RWrist			RThumb			RIndex			RPinky			LShoulder			LElbow			LWrist			LThumb			LIndex			LPinky			
		X1	Y1	Z1	X2	Y2	Z2	X3	Y3	Z3	X4	Y4	Z4	X5	Y5	Z5	X6	Y6	Z6	X7	Y7	Z7	X8	Y8	Z8	X9	Y9	Z9	X10	Y10	Z10	X11	Y11	Z11	X12	Y12	Z12	X13	Y13	Z13	X14	Y14	Z14	X15	Y15	Z15	X16	Y16	Z16	X17	Y17	Z17	X18	Y18	Z18	X19	Y19	Z19	X20	Y20	Z20	X21	Y21	Z21	X22	Y22	Z22	X23	Y23	Z23	X24	Y24	Z24	X25	Y25	Z25	X26	Y26	Z26	X27	Y27	Z27	
176	2.983050847457627	0.30042557744503495	0.32017438134319065	1.2382435306558743	0.31452526715034385	0.3004469483475492	1.6131575375092289	0.2851530503547425	0.3476975764604635	2.0199570677948384	0.2613735321280373	0.12544646910635207	2.0051043895597838	0.3310581152555521	0.1930452906278519	2.0455141723255985	0.2613548511971742	0.3643333915932327	2.068572626088079	0.09655343446966898	0.35881699714440773	1.2465086230679596	0.09924582180831881	0.32889107202087686	1.6268053594339988	0.1326575453445975	0.3390643014309465	2.0369748318787027	0.12079592233335025	0.10363091784458814	2.008798387538659	0.056762384903600874	0.17045311151753967	2.0063593053469235	0.14039470010560193	0.36411579923451676	2.091692969537118	0.19630279275746076	0.419395727704169	0.6187963589166994	0.22249314558668487	0.42866166465959493	0.37132397584915916	0.20090901998253302	0.3207437066124902	0.4956697628451695	0.3691720231204933	0.3861392063822893	0.7258973194747436	0.39987543731618125	0.25843280022161613	0.957803287731797	0.25088442533937105	0.126627618375408	1.0907992842650633	0.17632603016159634	0.11411438767218807	1.1524952399734711	0.1686680517137535	0.11687788436253746	1.1813145801471148	0.1707091190475562	0.1251897133053707	1.2031457047531544	0.026574392184349566	0.4158352697132267	0.7165877852265402	-0.015572171294805922	0.2910527893300179	0.9535431110213464	0.1437667326190485	0.12832834868577	1.0805103414631285	0.22879309681391302	0.0720516053004594	1.094641962221187	0.2304926342974499	0.05815340398683851	1.1397863967073794	0.16906323765331094	0.11063845791297838	1.1870167732766932
177	3.0	0.30069370244069676	0.3201691343967936	1.2399330743914325	0.3142538866983252	0.3004861108359641	1.6146991122973142	0.2850673954520639	0.3483940654235845	2.018866289825949	0.2612989524170907	0.12550739933786287	2.005171361852841	0.33094120313695563	0.19308669119233493	2.0441633627413256	0.26146194104726994	0.36452058648669305	2.068894268461389	0.09596811190193982	0.3585061841028279	1.2471059521832009	0.09940822186734036	0.32906824189246975	1.6269740968062028	0.13269778115327793	0.3390939565348938	2.0370029946771124	0.12018131249803338	0.1033793451945245	2.0084702254642925	0.05671913938410697	0.171015308423896	2.0055182148826964	0.141422351505556	0.36472716943063344	2.092080780360288	0.19737083466283242	0.4159530146523905	0.6179887543602229	0.22244342894388136	0.4286164917236037	0.37135906389421025	0.2009087533550092	0.3207295296034497	0.4956697315713318	0.369204745616749	0.3857051106352321	0.7268345920006952	0.3998863386770676	0.25858712161053843	0.9593572458031726	0.2508499213466323	0.12609797370274572	1.0918004325077342	0.1793886404125596	0.10955325921288414	1.149536251009449	0.16899058915769777	0.11671727365648582	1.181907942643331	0.16913199080094213	0.1253741135733258	1.2027812942930902	0.026446620074105386	0.4159228628739642	0.7166026741578414	-0.015922142635118233	0.29224887580437897	0.9563645373666353	0.14235379324130432	0.12484544956052887	1.0841541866028541	0.22749420117648145	0.06974118348858419	1.0955379272732597	0.2306361029812617	0.058802841211141745	1.1395254906241465	0.1689693398542124	0.11085003395209007	1.1924782401067548
178	3.016949152542373	0.3004006619893758	0.3202272989012417	1.2408721298369407	0.3141313841628403	0.30052586065901826	1.6152821575958636	0.2851683727697327	0.348601981470215	2.018713498542785	0.26102258895476044	0.1255173354158109	2.0064672010115085	0.33088481623248395	0.19313289073012502	2.04342559132691	0.2616584227418433	0.3647266693851644	2.0695354896583913	0.09507124563174633	0.35806843175778935	1.2496792878766882	0.09953013485161764	0.3293998738523811	1.6272157039764163	0.13276634504213347	0.33906913268394495	2.0370174606095346	0.11860172657819246	0.10315723706913356	2.008756329895867	0.056687937625655785	0.17120244254966066	2.0053411209945864	0.14277391258837563	0.3655304145785775	2.092567677570878	0.19777606697824565	0.4146151456017112	0.6176753102447192	0.22244319074951963	0.42859116349902565	0.3713644623177313	0.20091609104514113	0.32072388049919176	0.49566344207229723	0.36926979435487395	0.3854212639574602	0.728059033336877	0.3998772138352937	0.25863583345377966	0.9615399596072525	0.2507680812674952	0.1258887441884669	1.0925979451754007	0.18464604230629647	0.10112939862411015	1.1408894086154922	0.16948527073595598	0.11668836246779271	1.182237672496073	0.16782775169722308	0.1251779894570766	1.201500542772659	0.026445953725854423	0.4159869874724236	0.7166346294769852	-0.01727413910540207	0.2950194888862947	0.9586003645165577	0.13932138251767204	0.12222365113958196	1.0891071526072011	0.22652315361778888	0.06812472924403473	1.0959902320035568	0.2307398747820323	0.059675255315127025	1.1380443839693544	0.1683296442135484	0.11020884633459681	1.1975811137416845
179	3.0338983050847457	0.2994284953158197	0.32035752514123284	1.2419167774404274	0.31410950267050136	0.3005352241399398	1.6154010474136582	0.28539293151511463	0.34783284958720967	2.0201276356309643	0.26058120434332127	0.12539178336682813	2.008437947461122	0.33089145022820293	0.1931397306152271	2.043767919940909	0.26190547131592806	0.3646490424057504	2.070508096218992	0.09434584558589892	0.35751797964240395	1.2543075794754626	0.09919557560416505	0.32955059487891114	1.6271786030931312	0.13284637977086955	0.33904310961025474	2.036993736052208	0.11704912608883383	0.10305119744107695	2.0096480915441086	0.056661273324831944	0.1709942101023497	2.0065413371794976	0.14380974375340294	0.3661435735018496	2.092909740875123	0.1977624106685495	0.4146067200244904	0.6176633433070948	0.22254783086625918	0.4287046718916103	0.3713755372454581	0.20093310562605746	0.3207257998891615	0.49566067484647996	0.36929538926515504	0.3853506454050149	0.7289168672544047	0.3997914890194659	0.2585748082049577	0.9634728695694026	0.25070191391579133	0.12626485798173384	1.0943140104560751	0.18956830060979307	0.09178809742589708	1.1294578983007064	0.1699336471069462	0.11665150224913082	1.1822731058364695	0.16748668700247474	0.12395365219361326	1.2000252989928644	0.026935150112849696	0.4159987836112205	0.7165805769158511	-0.019214423879791095	0.29910796129424455	0.9605987038238641	0.13307714822604375	0.12199443284212493	1.092799220512045	0.22599971329656027	0.06746184318097004	1.0956009965466813	0.23079464890293866	0.06038009046068461	1.1360669390903495	0.1668641038499807	0.10731439160595385	1.2005961050426623
180	3.0508474576271185	0.29830515702047633	0.3202912029298413	1.2429366069494996	0.3141221720275141	0.30051326281529145	1.6159089109122324	0.28533746195931486	0.34614614235120594	2.0225720539311185	0.2601741938958955	0.12518171916863288	2.0099695007545018	0.33090920225950293	0.19308609603582946	2.044767186062394	0.2620961486926846	0.36402072818876186	2.071445813406214	0.09362379484388823	0.35599240605535787	1.259109466607141	0.09791567353184144	0.3288118412494022	1.6260518401622515	0.1329065365859022	0.3390205105801441	2.036895004339428	0.11600027801224222	0.10301973249924058	2.0108196074305407	0.05656213917174674	0.17043022956497927	2.0088991942530643	0.14422502545182575	0.36637112934539134	2.0930109721705117	0.19763834758460974	0.4148820265336036	0.6177031307923109	0.22271443612406316	0.42895902031405103	0.3713932537336765	0.2009513977800737	0.3207327361220644	0.4956634024644924	0.36927981408508226	0.3853920177729253	0.7292566682278928	0.3996431327831064	0.25847298929522994	0.9645921130817976	0.2506619059073121	0.12742966890347163	1.0982111535639356	0.19036272903962964	0.08589482246392376	1.1229212429706994	0.16990064280257677	0.1162117858460938	1.1833927021294801	0.16758367630572363	0.12207805311418622	1.200337234117628	0.028161166602813467	0.41595700396949814	0.7163880217875919	-0.02058852154128314	0.3044749812799108	0.9637372316974419	0.12296437869866922	0.1246420279506803	1.095889660692166	0.22523531318896772	0.06701805201692038	1.094938279687159	0.2305075006647492	0.06051444312236211	1.135026477392989	0.16458353797114111	0.10163025643696978	1.2019307304112692
181	3.067796610169492	0.29816322901013514	0.3191009915234356	1.2425308747780013	0.3141602535644726	0.30048738126233326	1.617111018810609	0.28459793295258623	0.34406065259489194	2.02484774815293	0.2599326095124149	0.12502686559760842	2.010672855007646	0.33090079440988407	0.19297597539639583	2.0456812814967327	0.262035297122784	0.3629494928936742	2.071922712082837	0.09229382251808398	0.3526432476180219	1.2616307253376393	0.09569114636522663	0.32649646874106575	1.6228961192096705	0.13293492676110905	0.33900332609531114	2.0367503825739393	0.11544237666938845	0.10300546339226885	2.011668017061662	0.05643031509008652	0.16970639472654853	2.0109824344590854	0.14422315906363867	0.36633691996460005	2.0929681644062748	0.19753460025313568	0.41500349082414967	0.6177078661882438	0.22284644048670788	0.42923239623914156	0.3713763762585034	0.2009595225210166	0.32074113327897735	0.49566976237949	0.36931216830320257	0.3854519610280961	0.7297637314476403	0.39969240542821977	0.2583710588814846	0.9652803620417929	0.2506803950849865	0.1290264524092533	1.1043863214599696	0.18549096641228993	0.08623248260097295	1.1297688930164902	0.1685312478387824	0.114933086076139	1.1881054206443054	0.16692146178310857	0.12136988732926858	1.204406857142726	0.02973897852155936	0.4159277663936123	0.7162296069870693	-0.020726698115280252	0.3118900339179228	0.9690937494854381	0.11028608855725856	0.12889473846695035	1.100946763961655	0.2228305658511796	0.06623368180473797	1.0959758929779329	0.2285615320921208	0.059879294782541906	1.1366723245144865	0.16182428342300392	0.09406807894899244	1.202222721602138
